inDegrees=no
num_controls=7
num_derivatives=13
num_iterations=141
num_multipliers=7
num_parameters=0
num_slacks=7
num_states=26
objective=5.563064
objective_accelerations=0.737155
objective_balance=0.026849
objective_effort=0.692580
objective_height=4.052118
objective_ligament=0.054362
solver_duration=1394.045093
status=Solve_Succeeded
success=true
DataType=double
version=3
OpenSimVersion=4.4-2022-07-23-0e9fedc
endheader
time	/jointset/ground_pelvis/pelvis_tilt/value	/jointset/ground_pelvis/pelvis_tx/value	/jointset/ground_pelvis/pelvis_ty/value	/jointset/hip_l/hip_flexion_l/value	/jointset/hip_l/hip_adduction_l/value	/jointset/hip_l/hip_rotation_l/value	/jointset/back/lumbar_extension/value	/jointset/patellofemoral_l/patellar_flexion_l/value	/jointset/knee_l/knee_flexion_l/value	/jointset/knee_l/knee_adduction_l/value	/jointset/knee_l/knee_rotation_l/value	/jointset/ankle_l/ankle_angle_l/value	/jointset/subtalar_l/subtalar_angle_l/value	/jointset/ground_pelvis/pelvis_tilt/speed	/jointset/ground_pelvis/pelvis_tx/speed	/jointset/ground_pelvis/pelvis_ty/speed	/jointset/hip_l/hip_flexion_l/speed	/jointset/hip_l/hip_adduction_l/speed	/jointset/hip_l/hip_rotation_l/speed	/jointset/back/lumbar_extension/speed	/jointset/patellofemoral_l/patellar_flexion_l/speed	/jointset/knee_l/knee_flexion_l/speed	/jointset/knee_l/knee_adduction_l/speed	/jointset/knee_l/knee_rotation_l/speed	/jointset/ankle_l/ankle_angle_l/speed	/jointset/subtalar_l/subtalar_angle_l/speed	/forceset/tau_hip_flexion_l	/forceset/tau_hip_adduction_l	/forceset/tau_hip_rotation_l	/forceset/tau_knee_flexion_l	/forceset/tau_ankle_angle_l	/forceset/tau_subtalar_angle_l	/forceset/tau_lumbar_extension	lambda_cid13_p0	lambda_cid13_p1	lambda_cid13_p2	lambda_cid13_p3	lambda_cid13_p4	lambda_cid13_p5	lambda_cid14_p0	/jointset/ground_pelvis/pelvis_tilt/accel	/jointset/ground_pelvis/pelvis_tx/accel	/jointset/ground_pelvis/pelvis_ty/accel	/jointset/hip_l/hip_flexion_l/accel	/jointset/hip_l/hip_adduction_l/accel	/jointset/hip_l/hip_rotation_l/accel	/jointset/back/lumbar_extension/accel	/jointset/patellofemoral_l/patellar_flexion_l/accel	/jointset/knee_l/knee_flexion_l/accel	/jointset/knee_l/knee_adduction_l/accel	/jointset/knee_l/knee_rotation_l/accel	/jointset/ankle_l/ankle_angle_l/accel	/jointset/subtalar_l/subtalar_angle_l/accel	gamma_cid13_p0	gamma_cid13_p1	gamma_cid13_p2	gamma_cid13_p3	gamma_cid13_p4	gamma_cid13_p5	gamma_cid14_p0
1	-0.07853299626538734	-0.0769995768497323	0.4180333106822608	2.091124918387269	-0.2939405002782051	0.122805141100623	-0.9599309841399283	2.093553268934809	2.093553268934808	0.1745329251994329	-0.174532857720975	0.227829382588187	0.08552050164903961	0.02059051765744431	0.002009475719446702	0.05246680026989731	-0.1954792181133799	-0.01550969900103577	-0.04335203757103551	6.284221090918102e-07	-0.100612536168225	-0.1006125361682242	-0.00350024573134949	7.932137716747031e-05	0.07086187386084661	0.01313780530191218	-0.3451663894059768	-0.04859611485861411	-0.06254655146725496	-0.4322402815881073	0.1389723541100555	0.002258245395837825	0.4096143874128321	-10.64827212202128	9.941957520513174	-12.38605972574723	21.46202465091169	-825.7192061033953	-34.94618012877839	-0.02270568047327682	-1.04061210735862	-0.6007973108829067	2.11823963505043	-5.966419735489371	-0.4082216923943468	-1.861382918542895	0.001612379353804215	-5.946203307276674	-5.946203307276668	-0.6894038456227198	-0.007901749925272842	0.703170429441387	-0.1681296983495565	-2.805384070809805e-08	3.992673886729803e-08	-1.205859365470817e-07	9.719495580600466e-08	1.610678503449058e-08	-3.146225727038478e-08	1.001409041117361e-08
1.01	-0.0783789248845114	-0.07700963095801749	0.4186648516904065	2.088868526955118	-0.294114691916933	0.1222810180267758	-0.9599310056668601	2.092247551976946	2.092247551976946	0.1744611278603935	-0.1745313366103191	0.2285738517713781	0.08564541533166763	0.01024539629999596	-0.004025892623565216	0.07393070306315346	-0.2560671137275625	-0.01930114073877376	-0.06141807686982046	-3.947425730190541e-06	-0.1607510354583095	-0.1607510354583095	-0.01097111952095696	0.0002275552054920358	0.07804716618469583	0.01188542741354533	-0.3472479157573867	-0.04844571301763433	-0.06254557507225603	-0.4345546539163371	0.1388787066530257	0.002396072020714161	0.4118567788404285	-10.89415018308506	9.945355383087445	-12.40968005876416	21.78478520668687	-829.0144534334994	-35.36556979440749	-0.02278461642713108	-1.028215965110694	-0.605731611667188	2.17385981517304	-6.14518225186701	-0.3604510439054498	-1.771044111472794	-0.001344609336453466	-6.080702029964884	-6.080702029964999	-0.7926992906279819	0.02655333420996158	0.7284834497866489	-0.09770395028434847	-2.132848353947488e-08	3.431294626397361e-08	-1.512762503819812e-07	7.161536132320306e-08	-4.996218209645032e-09	-4.090916167275589e-08	8.921154761685304e-09
1.02	-0.0783276554802447	-0.07708020375286417	0.4195137105692269	2.085998215011327	-0.2943259670989267	0.1215778686247544	-0.9599310433607661	2.090333844268163	2.090333844268165	0.1743112675397741	-0.1745282596843642	0.2293906288409939	0.08575902281217118	3.012233563815394e-05	-0.01009426159284946	0.09593037440480497	-0.318263320441117	-0.02292640765418855	-0.07915730320566555	-2.60497291465123e-06	-0.2222106863520159	-0.2222106863520167	-0.01911279911049388	0.000390484433761285	0.08532345114574337	0.01087656487701381	-0.3493294421087968	-0.04829531117665709	-0.0625445986772519	-0.4368690262445672	0.1387850591959954	0.00253389864558694	0.4140991702680244	-11.12966987050936	9.94935502098093	-12.43615491045445	22.09097094360272	-832.1652315291273	-35.73089824399725	-0.02291545860926122	-1.014642628740509	-0.6073974361373692	2.225393344729503	-6.288081955363723	-0.3749867279297308	-1.79602032595492	0.002796039484811144	-6.210433628001041	-6.210433628001042	-0.8235650056086264	-0.004962669936373847	0.721368956881052	-0.1194266279825174	-1.063267454638919e-08	7.438732206504772e-09	-2.466918680117926e-07	4.775588831046805e-08	-3.470486237098037e-08	-2.238420018206404e-07	2.12657406306497e-08
1.03	-0.0783775899749717	-0.07721147700715338	0.4205851793488664	2.082498166331225	-0.294572644367388	0.1206994068865009	-0.9599310362335348	2.087799249393467	2.087799249393469	0.1740763788218377	-0.174523719187404	0.2302804052007542	0.08586367985722056	-0.009962715607815358	-0.01615072504832106	0.1184464146487625	-0.3819896047924749	-0.02638240765643934	-0.0964945893110197	2.786892515928648e-06	-0.2848961506572469	-0.2848961506572463	-0.0279497916949463	0.0005151574524943808	0.09262390908435091	0.01008402262539454	-0.351484579769099	-0.04810866661310072	-0.06247232796202622	-0.4392401190501615	0.1389426326058661	0.002822025804464657	0.41644106762257	-11.2648001520801	9.862442659853981	-12.43893097978154	22.13364843265975	-835.2894262901808	-36.24221790164521	-0.02308099398768481	-0.9834567898209785	-0.6033165294508144	2.277151252232778	-6.451379927658017	-0.3268511559630241	-1.696518400901181	-0.0007757687098948495	-6.325788967427529	-6.325788967427319	-0.9264643430515502	0.02073396907419754	0.7331909833720246	-0.05474622731421467	1.03649261231859e-10	-1.965242492702688e-08	-3.42767947925226e-07	2.391396755763168e-08	-6.450131919473615e-08	-4.085451066189902e-07	3.3747444066129e-08
1.04	-0.07852582333166801	-0.07740302404183705	0.4218842969085462	2.078353559157083	-0.2948530705397899	0.1196487851575799	-0.9599310124934166	2.08463216264859	2.084632162648592	0.1737505805864185	-0.1745180216239948	0.2312429474941047	0.08596129583904123	-0.01962965005819678	-0.02214901767174271	0.141460130412878	-0.4471750192492804	-0.02967618844230177	-0.1135893013393944	7.176066640091636e-07	-0.3487090603882142	-0.348709060388212	-0.03729470260691881	0.0006218977230691804	0.0998766378638153	0.009468352231271902	-0.3536397174294006	-0.04792202204954151	-0.06240005724680246	-0.4416112118557557	0.1391002060157372	0.003110152963346242	0.4187829649771165	-11.38942696310284	9.77543142699251	-12.44367864058827	22.15759256781821	-838.2669975329432	-36.70570209848059	-0.02329940752500245	-0.9494619301260898	-0.595763269727379	2.324928448761117	-6.579907976453229	-0.3425428846520673	-1.747505510559022	0.001303809228329097	-6.435922713148306	-6.435922713148279	-0.9251486711126548	-0.008549219568050642	0.7118231250524247	-0.0840522564832048	1.465962247192984e-08	-5.521857058758729e-08	-4.572150611523566e-07	-3.2239023574899e-09	-9.739591578170145e-08	-6.600511863288218e-07	5.187989796096474e-08
